{
    "asset" : {
        "generator" : "Khronos glTF Blender I/O v1.1.45",
        "version" : "2.0"
    },
    "extensionsUsed" : [
        "KHR_lights_punctual"
    ],
    "extensionsRequired" : [
        "KHR_lights_punctual"
    ],
    "extensions" : {
        "KHR_lights_punctual" : {
            "lights" : [
                {
                    "color" : [
                        1,
                        1,
                        1
                    ],
                    "intensity" : 1.5099998712539673,
                    "type" : "directional",
                    "name" : "Sun.001"
                }
            ]
        }
    },
    "scene" : 0,
    "scenes" : [
        {
            "extras" : {},
            "name" : "Scene",
            "nodes" : [
                0,
                1,
                2,
                4
            ]
        }
    ],
    "nodes" : [
        {
            "mesh" : 0,
            "name" : "Cube",
            "scale" : [
                0.4367058277130127,
                0.4367058277130127,
                0.4367058277130127
            ],
            "translation" : [
                0,
                0.8245208859443665,
                0
            ]
        },
        {
            "name" : "Camera",
            "rotation" : [
                0.6243143677711487,
                0.2784639894962311,
                -0.2540913224220276,
                0.6841980814933777
            ],
            "translation" : [
                5.171671390533447,
                1.256521463394165,
                5.8326897621154785
            ]
        },
        {
            "mesh" : 1,
            "name" : "Wheels",
            "scale" : [
                0.17696736752986908,
                0.17696736752986908,
                0.17696736752986908
            ],
            "translation" : [
                0,
                0.37710732221603394,
                -1.5086737871170044
            ]
        },
        {
            "extensions" : {
                "KHR_lights_punctual" : {
                    "light" : 0
                }
            },
            "name" : "Sun_Orientation",
            "rotation" : [
                -0.7071067690849304,
                0,
                0,
                0.7071067690849304
            ]
        },
        {
            "children" : [
                3
            ],
            "name" : "Sun",
            "rotation" : [
                -0.03247411549091339,
                -0.0374995656311512,
                -0.26146554946899414,
                0.9639372229576111
            ],
            "translation" : [
                3.2172164916992188,
                5.284736633300781,
                -0.9458104968070984
            ]
        }
    ],
    "materials" : [
        {
            "doubleSided" : true,
            "emissiveFactor" : [
                0,
                0,
                0
            ],
            "extras" : {},
            "name" : "Material.004",
            "pbrMetallicRoughness" : {
                "baseColorFactor" : [
                    0.2667611837387085,
                    0.2667611837387085,
                    0.2667611837387085,
                    1
                ],
                "metallicFactor" : 0.8107396960258484,
                "roughnessFactor" : 0.5756838321685791
            }
        },
        {
            "doubleSided" : true,
            "emissiveFactor" : [
                0.7987768054008484,
                0.9711840152740479,
                1
            ],
            "extras" : {},
            "name" : "Material.005",
            "pbrMetallicRoughness" : {}
        },
        {
            "doubleSided" : true,
            "emissiveFactor" : [
                0,
                0,
                0
            ],
            "extras" : {},
            "name" : "Material.006",
            "pbrMetallicRoughness" : {
                "baseColorFactor" : [
                    0.037409912794828415,
                    0.037409912794828415,
                    0.037409912794828415,
                    1
                ],
                "metallicFactor" : 0.044247787445783615,
                "roughnessFactor" : 0.09734513610601425
            }
        },
        {
            "doubleSided" : true,
            "emissiveFactor" : [
                1,
                0.01567286252975464,
                0.011023369617760181
            ],
            "extras" : {},
            "name" : "Material",
            "pbrMetallicRoughness" : {}
        },
        {
            "doubleSided" : true,
            "emissiveFactor" : [
                0,
                0,
                0
            ],
            "extras" : {},
            "name" : "Material.001",
            "pbrMetallicRoughness" : {
                "baseColorFactor" : [
                    0.11068858951330185,
                    0.11068858951330185,
                    0.11068858951330185,
                    1
                ],
                "metallicFactor" : 0.9026550054550171,
                "roughnessFactor" : 0.5265486240386963
            }
        },
        {
            "doubleSided" : true,
            "emissiveFactor" : [
                0,
                0,
                0
            ],
            "name" : "Material.007",
            "pbrMetallicRoughness" : {
                "baseColorFactor" : [
                    0.0015474521787837148,
                    0.0015474521787837148,
                    0.0015474521787837148,
                    1
                ],
                "metallicFactor" : 0,
                "roughnessFactor" : 0.781818151473999
            }
        }
    ],
    "meshes" : [
        {
            "name" : "Cube",
            "primitives" : [
                {
                    "attributes" : {
                        "POSITION" : 0,
                        "NORMAL" : 1,
                        "TEXCOORD_0" : 2
                    },
                    "indices" : 3,
                    "material" : 0
                },
                {
                    "attributes" : {
                        "POSITION" : 4,
                        "NORMAL" : 5,
                        "TEXCOORD_0" : 6
                    },
                    "indices" : 7,
                    "material" : 1
                },
                {
                    "attributes" : {
                        "POSITION" : 8,
                        "NORMAL" : 9,
                        "TEXCOORD_0" : 10
                    },
                    "indices" : 11,
                    "material" : 2
                },
                {
                    "attributes" : {
                        "POSITION" : 12,
                        "NORMAL" : 13,
                        "TEXCOORD_0" : 14
                    },
                    "indices" : 15,
                    "material" : 3
                },
                {
                    "attributes" : {
                        "POSITION" : 16,
                        "NORMAL" : 17,
                        "TEXCOORD_0" : 18
                    },
                    "indices" : 19,
                    "material" : 4
                }
            ]
        },
        {
            "name" : "Cube.002",
            "primitives" : [
                {
                    "attributes" : {
                        "POSITION" : 20,
                        "NORMAL" : 21,
                        "TEXCOORD_0" : 22
                    },
                    "indices" : 23,
                    "material" : 5
                }
            ]
        }
    ],
    "accessors" : [
        {
            "bufferView" : 0,
            "componentType" : 5126,
            "count" : 1700,
            "max" : [
                1.957305669784546,
                1.7660191059112549,
                5.606147289276123
            ],
            "min" : [
                -1.957305669784546,
                -1.2717448472976685,
                -5.655151844024658
            ],
            "type" : "VEC3"
        },
        {
            "bufferView" : 1,
            "componentType" : 5126,
            "count" : 1700,
            "type" : "VEC3"
        },
        {
            "bufferView" : 2,
            "componentType" : 5126,
            "count" : 1700,
            "type" : "VEC2"
        },
        {
            "bufferView" : 3,
            "componentType" : 5123,
            "count" : 2739,
            "type" : "SCALAR"
        },
        {
            "bufferView" : 4,
            "componentType" : 5126,
            "count" : 32,
            "max" : [
                1.8492010831832886,
                0.3414554297924042,
                5.530827045440674
            ],
            "min" : [
                -1.8492010831832886,
                0.06582257151603699,
                4.931875705718994
            ],
            "type" : "VEC3"
        },
        {
            "bufferView" : 5,
            "componentType" : 5126,
            "count" : 32,
            "type" : "VEC3"
        },
        {
            "bufferView" : 6,
            "componentType" : 5126,
            "count" : 32,
            "type" : "VEC2"
        },
        {
            "bufferView" : 7,
            "componentType" : 5123,
            "count" : 48,
            "type" : "SCALAR"
        },
        {
            "bufferView" : 8,
            "componentType" : 5126,
            "count" : 59,
            "max" : [
                1.9335167407989502,
                1.6580109596252441,
                4.8701863288879395
            ],
            "min" : [
                -1.7566267251968384,
                -1.2145582437515259,
                -2.147524118423462
            ],
            "type" : "VEC3"
        },
        {
            "bufferView" : 9,
            "componentType" : 5126,
            "count" : 59,
            "type" : "VEC3"
        },
        {
            "bufferView" : 10,
            "componentType" : 5126,
            "count" : 59,
            "type" : "VEC2"
        },
        {
            "bufferView" : 11,
            "componentType" : 5123,
            "count" : 87,
            "type" : "SCALAR"
        },
        {
            "bufferView" : 12,
            "componentType" : 5126,
            "count" : 8,
            "max" : [
                1.8070363998413086,
                0.7791873812675476,
                -5.616884708404541
            ],
            "min" : [
                -1.804144024848938,
                0.700945258140564,
                -5.640564441680908
            ],
            "type" : "VEC3"
        },
        {
            "bufferView" : 13,
            "componentType" : 5126,
            "count" : 8,
            "type" : "VEC3"
        },
        {
            "bufferView" : 14,
            "componentType" : 5126,
            "count" : 8,
            "type" : "VEC2"
        },
        {
            "bufferView" : 15,
            "componentType" : 5123,
            "count" : 12,
            "type" : "SCALAR"
        },
        {
            "bufferView" : 16,
            "componentType" : 5126,
            "count" : 1176,
            "max" : [
                2.115283727645874,
                0.2754446566104889,
                5.602339744567871
            ],
            "min" : [
                -2.115283727645874,
                -1.249304175376892,
                -5.50581169128418
            ],
            "type" : "VEC3"
        },
        {
            "bufferView" : 17,
            "componentType" : 5126,
            "count" : 1176,
            "type" : "VEC3"
        },
        {
            "bufferView" : 18,
            "componentType" : 5126,
            "count" : 1176,
            "type" : "VEC2"
        },
        {
            "bufferView" : 19,
            "componentType" : 5123,
            "count" : 1782,
            "type" : "SCALAR"
        },
        {
            "bufferView" : 20,
            "componentType" : 5126,
            "count" : 5733,
            "max" : [
                5.100780487060547,
                2.2274813652038574,
                20.312387466430664
            ],
            "min" : [
                -5.100780487060547,
                -2.138537645339966,
                -2.2160890102386475
            ],
            "type" : "VEC3"
        },
        {
            "bufferView" : 21,
            "componentType" : 5126,
            "count" : 5733,
            "type" : "VEC3"
        },
        {
            "bufferView" : 22,
            "componentType" : 5126,
            "count" : 5733,
            "type" : "VEC2"
        },
        {
            "bufferView" : 23,
            "componentType" : 5123,
            "count" : 9312,
            "type" : "SCALAR"
        }
    ],
    "bufferViews" : [
        {
            "buffer" : 0,
            "byteLength" : 20400,
            "byteOffset" : 0
        },
        {
            "buffer" : 0,
            "byteLength" : 20400,
            "byteOffset" : 20400
        },
        {
            "buffer" : 0,
            "byteLength" : 13600,
            "byteOffset" : 40800
        },
        {
            "buffer" : 0,
            "byteLength" : 5478,
            "byteOffset" : 54400
        },
        {
            "buffer" : 0,
            "byteLength" : 384,
            "byteOffset" : 59880
        },
        {
            "buffer" : 0,
            "byteLength" : 384,
            "byteOffset" : 60264
        },
        {
            "buffer" : 0,
            "byteLength" : 256,
            "byteOffset" : 60648
        },
        {
            "buffer" : 0,
            "byteLength" : 96,
            "byteOffset" : 60904
        },
        {
            "buffer" : 0,
            "byteLength" : 708,
            "byteOffset" : 61000
        },
        {
            "buffer" : 0,
            "byteLength" : 708,
            "byteOffset" : 61708
        },
        {
            "buffer" : 0,
            "byteLength" : 472,
            "byteOffset" : 62416
        },
        {
            "buffer" : 0,
            "byteLength" : 174,
            "byteOffset" : 62888
        },
        {
            "buffer" : 0,
            "byteLength" : 96,
            "byteOffset" : 63064
        },
        {
            "buffer" : 0,
            "byteLength" : 96,
            "byteOffset" : 63160
        },
        {
            "buffer" : 0,
            "byteLength" : 64,
            "byteOffset" : 63256
        },
        {
            "buffer" : 0,
            "byteLength" : 24,
            "byteOffset" : 63320
        },
        {
            "buffer" : 0,
            "byteLength" : 14112,
            "byteOffset" : 63344
        },
        {
            "buffer" : 0,
            "byteLength" : 14112,
            "byteOffset" : 77456
        },
        {
            "buffer" : 0,
            "byteLength" : 9408,
            "byteOffset" : 91568
        },
        {
            "buffer" : 0,
            "byteLength" : 3564,
            "byteOffset" : 100976
        },
        {
            "buffer" : 0,
            "byteLength" : 68796,
            "byteOffset" : 104540
        },
        {
            "buffer" : 0,
            "byteLength" : 68796,
            "byteOffset" : 173336
        },
        {
            "buffer" : 0,
            "byteLength" : 45864,
            "byteOffset" : 242132
        },
        {
            "buffer" : 0,
            "byteLength" : 18624,
            "byteOffset" : 287996
        }
    ],
    "buffers" : [
        {
            "byteLength" : 306620,
            "uri" : "data:application/octet-stream;base64,"
        }
    ]
}
